<?xml version="1.0" encoding="UTF-8" standalone="no"?>
<!DOCTYPE svg PUBLIC "-//W3C//DTD SVG 1.1//EN" "http://www.w3.org/Graphics/SVG/1.1/DTD/svg11.dtd">
<svg width="100%" height="100%" viewBox="0 0 30 22" version="1.1" xmlns="http://www.w3.org/2000/svg" xmlns:xlink="http://www.w3.org/1999/xlink" xml:space="preserve" xmlns:serif="http://www.serif.com/" style="fill-rule:evenodd;clip-rule:evenodd;stroke-linejoin:round;stroke-miterlimit:2;">
    <g transform="matrix(1,0,0,1,13.7279,-1.215e-05)">
        <path d="M8.707,0.293C8.317,-0.098 7.683,-0.098 7.293,0.293L0.929,6.657C0.538,7.047 0.538,7.681 0.929,8.071C1.319,8.462 1.953,8.462 2.343,8.071L8,2.414L13.657,8.071C14.047,8.462 14.681,8.462 15.071,8.071C15.462,7.681 15.462,7.047 15.071,6.657L8.707,0.293ZM9,21.003L9,1L7,1L7,21.003L9,21.003Z" style="fill:rgb(0,255,10);fill-rule:nonzero;"/>
    </g>
    <g transform="matrix(1,0,0,1,-0.636039,-6.93889e-18)">
        <path d="M7.293,20.71C7.683,21.101 8.317,21.101 8.707,20.71L15.071,14.346C15.462,13.956 15.462,13.322 15.071,12.932C14.681,12.541 14.047,12.541 13.657,12.932L8,18.589L2.343,12.932C1.953,12.541 1.319,12.541 0.929,12.932C0.538,13.322 0.538,13.956 0.929,14.346L7.293,20.71ZM7,0L7,20.003L9,20.003L9,0L7,0Z" style="fill:rgb(255,0,0);fill-opacity:0.56;fill-rule:nonzero;"/>
    </g>
</svg>
