<?xml version="1.0" encoding="UTF-8" standalone="no"?>
<!DOCTYPE svg PUBLIC "-//W3C//DTD SVG 1.1//EN" "http://www.w3.org/Graphics/SVG/1.1/DTD/svg11.dtd">
<svg width="100%" height="100%" viewBox="0 0 247 53" version="1.1" xmlns="http://www.w3.org/2000/svg" xmlns:xlink="http://www.w3.org/1999/xlink" xml:space="preserve" xmlns:serif="http://www.serif.com/" style="fill-rule:evenodd;clip-rule:evenodd;stroke-linejoin:round;stroke-miterlimit:2;">
    <g id="logo" transform="matrix(1,0,0,1,-454.003,-68.449)">
        <g transform="matrix(1,0,0,1,-74.0348,21.1407)">
            <text x="528.038px" y="72.48px" style="font-family:'Spacesky';font-size:36px;">CELESTIAL</text>
        </g>
        <g transform="matrix(0.995454,-0.0952464,0.0952464,0.995454,102.073,19.5522)">
            <g transform="matrix(24,0,0,24,563.457,147.883)">
                <path d="M0.209,-0.069C0.208,-0.018 0.238,0.017 0.293,0.013C0.4,0.005 0.49,-0.146 0.539,-0.287C0.57,-0.287 0.613,-0.298 0.657,-0.324C0.614,-0.276 0.553,-0.202 0.533,-0.136C0.509,-0.056 0.539,0.013 0.615,0.016C0.67,0.018 0.729,-0.026 0.755,-0.086C0.767,-0.114 0.764,-0.139 0.759,-0.151C0.755,-0.161 0.748,-0.159 0.744,-0.151C0.712,-0.076 0.662,-0.01 0.62,-0.013C0.589,-0.015 0.578,-0.054 0.595,-0.109C0.611,-0.159 0.662,-0.229 0.709,-0.283C0.738,-0.317 0.714,-0.363 0.695,-0.384C0.686,-0.394 0.679,-0.392 0.665,-0.382C0.627,-0.356 0.59,-0.339 0.554,-0.335C0.575,-0.404 0.585,-0.463 0.554,-0.461C0.514,-0.458 0.419,-0.322 0.5,-0.293C0.453,-0.146 0.363,-0.023 0.299,-0.017C0.268,-0.014 0.264,-0.051 0.288,-0.108C0.31,-0.159 0.363,-0.237 0.383,-0.282C0.405,-0.332 0.398,-0.374 0.382,-0.392C0.374,-0.401 0.366,-0.398 0.358,-0.386C0.351,-0.376 0.338,-0.356 0.323,-0.331C0.323,-0.366 0.303,-0.397 0.264,-0.397C0.213,-0.397 0.134,-0.351 0.054,-0.236C-0.029,-0.116 -0.009,0.011 0.083,0.011C0.132,0.011 0.177,-0.028 0.209,-0.069ZM0.279,-0.346C0.308,-0.344 0.299,-0.281 0.237,-0.172C0.186,-0.082 0.134,-0.021 0.094,-0.022C0.055,-0.023 0.066,-0.11 0.12,-0.196C0.175,-0.284 0.248,-0.348 0.279,-0.346Z" style="fill-rule:nonzero;"/>
            </g>
            <text x="537.489px" y="147.883px" style="font-family:'SignPainter-HouseScript', 'SignPainter';font-size:24px;">S<tspan x="547.809px 557.577px 580.881px " y="147.883px 147.883px 147.883px ">afi</tspan></text>
        </g>
    </g>
</svg>
