<?xml version="1.0" encoding="UTF-8" standalone="no"?>
<!DOCTYPE svg PUBLIC "-//W3C//DTD SVG 1.1//EN" "http://www.w3.org/Graphics/SVG/1.1/DTD/svg11.dtd">
<svg width="100%" height="100%" viewBox="0 0 496 496" version="1.1" xmlns="http://www.w3.org/2000/svg" xmlns:xlink="http://www.w3.org/1999/xlink" xml:space="preserve" xmlns:serif="http://www.serif.com/" style="fill-rule:evenodd;clip-rule:evenodd;stroke-linecap:round;stroke-linejoin:round;stroke-miterlimit:1.5;">
    <path d="M385.588,415.915C424.544,415.056 456.001,383.162 456.001,343.994L456.001,335.995L384.002,335.995C361.162,335.995 340.819,346.713 327.62,363.354C326.897,324.721 324.964,292.277 320.698,263.996L368.002,263.996C407.697,263.996 440.001,231.692 440.001,191.997L440.001,183.997L368.002,183.997C344.178,183.997 322.553,195.614 309.315,214.278C308.101,210.524 306.796,206.844 305.421,203.219C309.491,197.852 312.003,191.243 312.003,183.997C312.003,176.11 309.026,168.982 304.284,163.396C313.651,157.806 320.003,147.677 320.003,135.998C320.003,118.35 305.651,103.998 288.003,103.998C275.371,103.998 264.523,111.424 259.324,122.076C256.164,120.885 252.805,120.279 249.379,120.127C244.453,115.342 239.172,110.518 233.5,105.631C251.73,96.198 264.004,77.264 264.004,55.999L264.004,0L256.004,0C225.125,0 200.005,25.121 200.005,55.999L200.005,79.206C194.942,75.503 189.599,71.71 184.005,67.831L184.005,63.999L183.532,63.999C179.532,28.054 148.998,0 112.006,0L72.007,0L72.007,8C72.007,45.425 100.717,76.245 137.264,79.655C126.654,89.854 120.006,104.151 120.006,119.998L120.006,175.997L128.006,175.997C158.884,175.997 184.005,150.876 184.005,119.998L184.005,87.381C202.821,100.815 218.18,113.053 231.149,124.92C222.094,130.572 216.004,140.556 216.004,151.998C216.004,169.646 230.356,183.997 248.004,183.997C248.004,201.645 262.355,215.997 280.003,215.997C284.331,215.997 288.445,215.118 292.21,213.547C297.941,229.738 302.058,247.422 305.011,267.285C291.995,255.179 274.66,247.996 256.004,247.996L184.005,247.996L184.005,255.996C184.005,295.691 216.309,327.995 256.004,327.995L310.522,327.995C311.538,349.651 311.925,373.65 311.979,400.329C298.124,400.954 284.636,403.587 271.691,408.345C268.605,367.81 241.227,335.995 208.005,335.995C187.845,335.995 169.861,347.737 158.119,366.002C145.982,355.072 129.389,350.268 110.951,352.553C92.229,354.889 73.8,364.307 59.062,379.049C44.32,393.794 34.902,412.216 32.566,430.938C30.144,450.313 35.519,467.719 47.687,479.992L32.007,479.992L32.007,495.992L87.815,495.992C87.901,495.992 87.991,496 88.089,496C88.151,496 88.214,495.992 88.272,495.992L464,495.992L464,479.992L445.192,479.992C432.665,451.954 411.536,429.747 385.588,415.915ZM384.002,351.994L439.434,351.994C435.536,379.099 412.169,399.994 384.002,399.994L328.569,399.994C332.467,372.889 355.834,351.994 384.002,351.994ZM368.002,199.997L423.435,199.997C419.536,227.102 396.169,247.996 368.002,247.996L317.948,247.996C317.194,244.164 316.393,240.41 315.538,236.723C323.62,214.707 344.377,199.997 368.002,199.997ZM288.003,119.998C296.827,119.998 304.003,127.174 304.003,135.998C304.003,144.822 296.827,151.998 288.003,151.998C279.179,151.998 272.004,144.822 272.004,135.998C272.004,127.174 279.179,119.998 288.003,119.998ZM216.004,55.999C216.004,36.679 229.774,20.519 248.004,16.808L248.004,55.999C248.004,73.639 236.227,89.053 219.629,94.127C218.454,93.19 217.219,92.237 216.004,91.295L216.004,55.999ZM88.573,16L112.006,16C140.174,16 163.54,36.894 167.439,63.999L144.006,63.999C115.838,63.999 92.471,43.105 88.573,16ZM168.005,119.998C168.005,139.318 154.236,155.478 136.006,159.189L136.006,119.998C136.006,100.678 149.775,84.518 168.005,80.807L168.005,119.998ZM248.004,167.997C239.18,167.997 232.004,160.822 232.004,151.998C232.004,143.173 239.18,135.998 248.004,135.998C250.926,135.998 253.766,136.806 256.234,138.287C256.738,145.263 259.453,151.572 263.722,156.599C259.34,159.212 255.637,162.798 252.926,167.126C251.34,167.646 249.707,167.997 248.004,167.997ZM264.004,183.997C264.004,175.173 271.179,167.997 280.003,167.997C288.827,167.997 296.003,175.173 296.003,183.997C296.003,192.821 288.827,199.997 280.003,199.997C271.179,199.997 264.004,192.821 264.004,183.997ZM256.004,311.995C227.836,311.995 204.469,291.101 200.571,263.996L256.004,263.996C279.906,263.996 301.05,279.109 308.874,301.62C309.147,305.003 309.386,308.483 309.62,311.995L256.004,311.995ZM256.004,415.993C256.004,450.864 234.965,479.266 208.926,479.93C210.067,475.375 212.18,472.145 214.661,468.426C218.829,462.176 224.004,454.407 224.004,439.985C224.004,425.56 218.829,417.794 214.661,411.544C210.942,405.962 208.005,401.552 208.005,391.97C208.005,382.4 210.942,377.994 214.661,372.42C217.59,368.025 220.989,362.818 222.766,355.123C242.027,363.451 256.004,387.58 256.004,415.993ZM207.075,352.057C205.934,356.604 203.821,359.834 201.348,363.545C197.181,369.787 192.005,377.553 192.005,391.97C192.005,406.392 197.181,414.169 201.348,420.419C205.067,425.993 208.005,430.399 208.005,439.985C208.005,449.567 205.067,453.977 201.348,459.551C198.411,463.953 195.013,469.16 193.235,476.863C173.982,468.535 160.005,444.407 160.005,415.993C160.005,381.123 181.036,352.721 207.075,352.057ZM148.236,444.352C145.142,449.098 141.662,453.602 137.638,457.625C125.397,469.864 110.287,477.656 95.077,479.559C81.03,481.297 68.64,477.734 59.952,469.559C63.792,467.375 67.425,466.617 71.64,465.778C78.999,464.305 88.159,462.473 98.358,452.274C108.557,442.071 110.389,432.915 111.862,425.552C113.182,418.978 114.213,413.786 120.99,407.009C127.76,400.24 132.951,399.201 139.517,397.888C141.549,397.482 143.732,397.025 146.021,396.4C144.759,402.681 144.006,409.224 144.006,415.993C144.006,425.993 145.541,435.52 148.236,444.352ZM48.441,432.923C50.343,417.712 58.128,402.603 70.374,390.361C82.624,378.123 97.725,370.33 112.936,368.428C126.975,366.666 139.381,370.24 148.068,378.435C144.22,380.619 140.592,381.361 136.389,382.201C129.029,383.673 119.877,385.498 109.678,395.697C99.479,405.896 97.647,415.056 96.174,422.419C94.854,428.993 93.823,434.184 87.046,440.962C80.272,447.735 75.077,448.778 68.503,450.09C63.464,451.098 57.534,452.329 51.023,456.274C48.312,449.399 47.374,441.473 48.441,432.923ZM135.732,479.992C140.373,476.734 144.814,473.07 148.951,468.938C151.279,466.61 153.388,464.098 155.47,461.559C159.404,468.633 164.255,474.832 169.767,479.992L135.732,479.992ZM271.484,425.681C286.3,419.353 301.956,415.993 318.171,415.993L321.843,415.993C366.818,415.993 407.033,440.778 427.466,479.992L246.242,479.992C259.883,467.223 269.332,447.864 271.484,425.681Z" style="fill:rgb(255,251,251);fill-rule:nonzero;"/>
    <g transform="matrix(17.5192,0,0,12.7762,-14338.7,-4313.71)">
        <ellipse cx="834.895" cy="348.274" rx="0.881" ry="1.208" style="fill:rgb(240,0,255);stroke:rgb(240,0,255);stroke-width:0.07px;"/>
    </g>
    <g transform="matrix(17.5192,0,0,12.7762,-14378.9,-4297.74)">
        <ellipse cx="834.895" cy="348.274" rx="0.881" ry="1.208" style="fill:rgb(137,233,217);stroke:rgb(137,233,217);stroke-width:0.07px;"/>
    </g>
    <g transform="matrix(17.5192,0,0,12.7762,-14346.7,-4265.6)">
        <ellipse cx="834.895" cy="348.274" rx="0.881" ry="1.208" style="fill:rgb(240,0,255);stroke:rgb(240,0,255);stroke-width:0.07px;"/>
    </g>
</svg>
