<?xml version="1.0" encoding="iso-8859-1"?>
<!-- Generator: Adobe Illustrator 18.0.0, SVG Export Plug-In . SVG Version: 6.00 Build 0)  -->
<!DOCTYPE svg PUBLIC "-//W3C//DTD SVG 1.1//EN" "http://www.w3.org/Graphics/SVG/1.1/DTD/svg11.dtd">
<svg version="1.1" id="Capa_1" xmlns="http://www.w3.org/2000/svg" xmlns:xlink="http://www.w3.org/1999/xlink" x="0px" y="0px"
	 viewBox="0 0 297 297" style="enable-background:new 0 0 297 297;" xml:space="preserve">
<g>
	<circle cx="148.501" cy="148.501" r="17.255"/>
	<path d="M294.908,142.226c-0.566-0.756-14.169-18.72-38.883-36.693c-32.842-23.886-70.023-36.511-107.524-36.511
		c-37.501,0-74.683,12.625-107.525,36.51C16.261,123.506,2.658,141.47,2.092,142.226c-2.789,3.718-2.789,8.831,0,12.549
		c0.566,0.756,14.169,18.72,38.884,36.694c32.843,23.885,70.024,36.51,107.525,36.51c37.502,0,74.683-12.625,107.524-36.511
		c24.714-17.974,38.316-35.938,38.883-36.693C297.697,151.057,297.697,145.943,294.908,142.226z M243.167,122.043
		c10.076,7.273,18.143,14.598,23.991,20.475L118.549,92.982c9.421-1.931,19.417-3.046,29.952-3.046
		C181.803,89.937,213.653,100.738,243.167,122.043z M207.065,148.5c0,32.292-26.271,58.564-58.563,58.564
		S89.938,180.792,89.938,148.5c0-14.264,5.017-27.641,14.238-38.262l102.732,34.244C207.003,145.83,207.065,147.174,207.065,148.5z
		 M24.152,148.499c8.937-9.865,28.836-29.284,57.606-43.054c-8.209,12.748-12.735,27.72-12.735,43.055
		c0,15.913,4.719,30.738,12.807,43.182c-9.538-4.567-18.878-10.144-27.995-16.725C39.936,164.925,29.835,154.779,24.152,148.499z
		 M243.167,174.957c-9.117,6.581-18.457,12.157-27.993,16.725c7.579-11.662,12.182-25.418,12.73-40.2l31.395,10.465
		C254.696,166.077,249.303,170.527,243.167,174.957z"/>
</g>
<g>
</g>
<g>
</g>
<g>
</g>
<g>
</g>
<g>
</g>
<g>
</g>
<g>
</g>
<g>
</g>
<g>
</g>
<g>
</g>
<g>
</g>
<g>
</g>
<g>
</g>
<g>
</g>
<g>
</g>
</svg>
