<?xml version="1.0" encoding="UTF-8" standalone="no"?>
<!DOCTYPE svg PUBLIC "-//W3C//DTD SVG 1.1//EN" "http://www.w3.org/Graphics/SVG/1.1/DTD/svg11.dtd">
<svg width="100%" height="100%" viewBox="0 0 20 64" version="1.1" xmlns="http://www.w3.org/2000/svg" xmlns:xlink="http://www.w3.org/1999/xlink" xml:space="preserve" xmlns:serif="http://www.serif.com/" style="fill-rule:evenodd;clip-rule:evenodd;stroke-linejoin:round;stroke-miterlimit:1.41421;">
    <g transform="matrix(3.99077,0,0,3.99077,-3.96771,0.0238028)">
        <path d="M2.1,3.1C2.3,4.4 2.5,4.7 2.5,6C2.5,6.8 1,7.5 1,7.5L1,8.5C1,8.5 2.5,9.2 2.5,10C2.5,11.3 2.3,11.6 2.1,12.9C1.8,15 2.9,16 3.9,16C4.9,16 6,16 6,16L6,14C6,14 4.2,14.2 4.2,13C4.2,12.1 4.4,12.1 4.6,10.1C4.7,9.2 4.1,8.5 3.5,8C4.1,7.5 4.7,6.9 4.6,6C4.3,4 4.2,4 4.2,3.1C4.2,1.9 6,2 6,2L6,0C6,0 5,0 3.9,0C2.8,0 1.8,1 2.1,3.1Z" style="fill:rgb(231,231,233);fill-rule:nonzero;"/>
    </g>
</svg>
