<?xml version="1.0" encoding="UTF-8" standalone="no"?>
<!DOCTYPE svg PUBLIC "-//W3C//DTD SVG 1.1//EN" "http://www.w3.org/Graphics/SVG/1.1/DTD/svg11.dtd">
<svg width="100%" height="100%" viewBox="0 0 20 64" version="1.1" xmlns="http://www.w3.org/2000/svg" xmlns:xlink="http://www.w3.org/1999/xlink" xml:space="preserve" xmlns:serif="http://www.serif.com/" style="fill-rule:evenodd;clip-rule:evenodd;stroke-linejoin:round;stroke-miterlimit:1.41421;">
    <g transform="matrix(3.99077,0,0,3.99077,-39.9077,0)">
        <path d="M13.9,3.1C13.7,4.4 13.5,4.7 13.5,6C13.5,6.8 15,7.5 15,7.5L15,8.5C15,8.5 13.5,9.2 13.5,10C13.5,11.3 13.7,11.6 13.9,12.9C14.2,15 13.1,16 12.1,16C11.1,16 10,16 10,16L10,14C10,14 11.8,14.2 11.8,13C11.8,12.1 11.6,12.1 11.4,10.1C11.3,9.2 11.9,8.5 12.5,8C11.9,7.5 11.3,6.9 11.4,6C11.6,4 11.8,4 11.8,3.1C11.8,1.9 10,2 10,2L10,0C10,0 11,0 12.1,0C13.2,0 14.2,1 13.9,3.1Z" style="fill:rgb(231,231,233);fill-rule:nonzero;"/>
    </g>
</svg>
