<?xml version="1.0" encoding="UTF-8" standalone="no"?>
<!DOCTYPE svg PUBLIC "-//W3C//DTD SVG 1.1//EN" "http://www.w3.org/Graphics/SVG/1.1/DTD/svg11.dtd">
<svg width="100%" height="100%" viewBox="0 0 100 100" version="1.1" xmlns="http://www.w3.org/2000/svg" xmlns:xlink="http://www.w3.org/1999/xlink" xml:space="preserve" xmlns:serif="http://www.serif.com/" style="fill-rule:evenodd;clip-rule:evenodd;stroke-linejoin:round;stroke-miterlimit:1.41421;">
    <g transform="matrix(0.141559,0.00102357,-0.00124433,0.172089,19.9644,2.47966)">
        <path d="M440.979,206.48L136.073,7.471C114.837,-6.385 86.397,-0.418 72.548,20.824C58.686,42.054 64.665,70.494 85.896,84.35L377.086,274.4L85.896,464.457C64.666,478.312 58.693,506.752 72.548,527.982C81.349,541.464 96.037,548.796 111.025,548.796C119.624,548.796 128.332,546.378 136.074,541.323L440.973,342.313C468.163,326.302 483.721,301.626 483.721,274.392C483.721,247.16 468.17,222.491 440.979,206.48Z" style="fill:rgb(231,231,233);fill-rule:nonzero;stroke:rgb(231,231,233);stroke-width:29.62px;"/>
    </g>
</svg>
