<?xml version="1.0" encoding="UTF-8" standalone="no"?>
<!DOCTYPE svg PUBLIC "-//W3C//DTD SVG 1.1//EN" "http://www.w3.org/Graphics/SVG/1.1/DTD/svg11.dtd">
<svg width="100%" height="100%" viewBox="0 0 130 241" version="1.1" xmlns="http://www.w3.org/2000/svg" xmlns:xlink="http://www.w3.org/1999/xlink" xml:space="preserve" xmlns:serif="http://www.serif.com/" style="fill-rule:evenodd;clip-rule:evenodd;stroke-linejoin:round;stroke-miterlimit:1.41421;">
    <g transform="matrix(0.467026,0,0,0.467026,-54.9435,1.13179)">
        <path d="M394.316,138.16C394.316,214.461 332.461,276.316 256.16,276.316C179.855,276.316 118,214.461 118,138.16C118,61.855 179.855,0 256.16,0C332.461,0 394.316,61.855 394.316,138.16Z" style="fill:white;fill-rule:nonzero;"/>
    </g>
    <g transform="matrix(0.467026,0,0,0.467026,-54.9435,1.13179)">
        <path d="M353.684,138.16C353.684,192.02 310.02,235.684 256.16,235.684C202.297,235.684 158.637,192.02 158.637,138.16C158.637,84.297 202.297,40.637 256.16,40.637C310.02,40.637 353.684,84.297 353.684,138.16Z" style="fill:rgb(240,0,255);fill-rule:nonzero;"/>
    </g>
    <g transform="matrix(0.467026,0,0,0.467026,-54.9435,1.13179)">
        <path d="M313.047,138.16C313.047,169.578 287.578,195.047 256.16,195.047C224.738,195.047 199.27,169.578 199.27,138.16C199.27,106.738 224.738,81.27 256.16,81.27C287.578,81.27 313.047,106.738 313.047,138.16Z" style="fill:white;fill-rule:nonzero;"/>
    </g>
    <g transform="matrix(0.467026,0,0,0.467026,-54.9435,1.13179)">
        <path d="M385.77,501.301L263.863,135.586C262.445,131.332 257.891,129.023 253.586,130.449C251.066,131.289 249.367,133.289 248.586,135.633L248.453,135.586L126.547,501.301C125.352,504.879 126.777,508.805 129.984,510.785C131.301,511.602 132.777,512 134.254,512C136.352,512 138.437,511.188 140,509.617L256.16,393.461L372.316,509.617C373.883,511.188 375.969,512 378.063,512C379.539,512 381.016,511.602 382.336,510.785C385.539,508.805 386.969,504.879 385.77,501.301ZM307.816,318.82L256.16,370.477L204.504,318.82L256.16,163.852L307.816,318.82ZM152.848,473.781L198.758,336.059L244.664,381.969L152.848,473.781ZM267.652,381.969L313.563,336.059L359.469,473.781L267.652,381.969Z" style="fill:white;fill-rule:nonzero;"/>
    </g>
    <g transform="matrix(0.467026,0,0,0.467026,-54.9435,1.13179)">
        <path d="M272.414,138.16C272.414,147.137 265.137,154.414 256.16,154.414C247.184,154.414 239.906,147.137 239.906,138.16C239.906,129.184 247.184,121.906 256.16,121.906C265.137,121.906 272.414,129.184 272.414,138.16Z" style="fill:rgb(240,0,255);fill-rule:nonzero;"/>
    </g>
</svg>
